<!-- by TradingView --><svg width="56" height="56" viewBox="0 0 56 56" xmlns="http://www.w3.org/2000/svg"><path fill="#F0F3FA" d="M0 0h56v56H0z"/><path d="M27.55 29.86H24v3.71h3.55v-3.71Z" fill="url(#a)"/><path d="M38.9 26H27v11.29h-3V41h14.9c3.92 0 7.1-3.33 7.1-7.43S42.82 26 38.9 26Z" fill="url(#b)"/><path d="M38.9 30H24V15h14.9c3.92 0 7.1 3.33 7.1 7.43S42.82 30 38.9 30Z" fill="url(#c)"/><path d="M27.55 18.71H24v3.72h3.55V18.7Z" fill="url(#d)"/><path d="M24 18.71h-3.34v3.72H24V18.7Z" fill="url(#e)"/><path d="M27.55 15H24v3.72h3.55V15Z" fill="url(#f)"/><path d="M20.66 15H17v3.72h3.66V15Z" fill="url(#g)"/><path d="M13.55 18.71H10v3.72h3.55V18.7Z" fill="url(#h)"/><path d="M20.66 22.43H17v3.71h3.66v-3.71Z" fill="url(#i)"/><path d="M17 29.86h-3.55v3.71H17v-3.71Z" fill="url(#j)"/><path d="M13.55 37.29H10V41h3.55v-3.71Z" fill="url(#k)"/><path d="M20.66 33.57H17v3.72h3.66v-3.72Z" fill="url(#l)"/><path d="M24 33.57h-3.34v3.72H24v-3.72Z" fill="url(#m)"/><path d="M24 37.29h-3.34V41H24v-3.71Z" fill="url(#n)"/><path d="M21 26v4h17.9c1.72 0 3.63-.7 4.78-2-1.3-1.2-3.06-2-4.79-2H21Z" fill="url(#o)"/><defs><linearGradient id="a" x1="25.78" y1="33.57" x2="25.78" y2="29.86" gradientUnits="userSpaceOnUse"><stop stop-color="#06D4F6"/><stop offset="1" stop-color="#226FB8"/></linearGradient><linearGradient id="b" x1="35.11" y1="41" x2="35.11" y2="26.14" gradientUnits="userSpaceOnUse"><stop stop-color="#0BBAFB"/><stop offset="1" stop-color="#2A1D7D"/></linearGradient><linearGradient id="c" x1="35.11" y1="15" x2="35.11" y2="29.86" gradientUnits="userSpaceOnUse"><stop stop-color="#06D4F6"/><stop offset="1" stop-color="#226FB8"/></linearGradient><linearGradient id="d" x1="25.78" y1="18.71" x2="25.78" y2="22.43" gradientUnits="userSpaceOnUse"><stop stop-color="#04C49A"/><stop offset="1" stop-color="#06638E"/></linearGradient><linearGradient id="e" x1="22.33" y1="18.71" x2="22.33" y2="22.43" gradientUnits="userSpaceOnUse"><stop stop-color="#0BBAFB"/><stop offset="1" stop-color="#2A1D7D"/></linearGradient><linearGradient id="f" x1="25.78" y1="15" x2="25.78" y2="18.71" gradientUnits="userSpaceOnUse"><stop stop-color="#0BBAFB"/><stop offset="1" stop-color="#2A1D7D"/></linearGradient><linearGradient id="g" x1="18.83" y1="15" x2="18.83" y2="18.71" gradientUnits="userSpaceOnUse"><stop stop-color="#04C49A"/><stop offset="1" stop-color="#06638E"/></linearGradient><linearGradient id="h" x1="11.78" y1="18.71" x2="11.78" y2="22.43" gradientUnits="userSpaceOnUse"><stop stop-color="#04C49A"/><stop offset="1" stop-color="#06638E"/></linearGradient><linearGradient id="i" x1="18.83" y1="22.43" x2="18.83" y2="26.14" gradientUnits="userSpaceOnUse"><stop stop-color="#06D4F6"/><stop offset="1" stop-color="#226FB8"/></linearGradient><linearGradient id="j" x1="15.22" y1="33.57" x2="15.22" y2="29.86" gradientUnits="userSpaceOnUse"><stop stop-color="#13AFDF"/><stop offset="1" stop-color="#253E95"/></linearGradient><linearGradient id="k" x1="11.78" y1="41" x2="11.78" y2="37.29" gradientUnits="userSpaceOnUse"><stop stop-color="#0BBAFB"/><stop offset="1" stop-color="#2A1D7D"/></linearGradient><linearGradient id="l" x1="18.83" y1="37.29" x2="18.83" y2="33.57" gradientUnits="userSpaceOnUse"><stop stop-color="#06D4F6"/><stop offset="1" stop-color="#226FB8"/></linearGradient><linearGradient id="m" x1="22.33" y1="37.29" x2="22.33" y2="33.57" gradientUnits="userSpaceOnUse"><stop stop-color="#0BBAFB"/><stop offset="1" stop-color="#2A1D7D"/></linearGradient><linearGradient id="n" x1="22.33" y1="41" x2="22.33" y2="37.29" gradientUnits="userSpaceOnUse"><stop stop-color="#04C49A"/><stop offset="1" stop-color="#06638E"/></linearGradient><linearGradient id="o" x1="20.66" y1="28" x2="43.59" y2="28" gradientUnits="userSpaceOnUse"><stop stop-color="#13AFDF"/><stop offset="1" stop-color="#253E95"/></linearGradient></defs></svg>