<!-- by TradingView --><svg width="56" height="56" viewBox="0 0 56 56" xmlns="http://www.w3.org/2000/svg"><path fill="#F0F3FA" d="M0 0h56v56H0z"/><path d="M44 16a83.27 83.27 0 0 1 3 1.73 84.65 84.65 0 0 1 0 3.47 86.86 86.86 0 0 1-3 1.74 83.27 83.27 0 0 1-3-1.74 84.6 84.6 0 0 1 0-3.47A86.86 86.86 0 0 1 44 16Zm1.5 3.47a1.51 1.51 0 0 0-1.5-1.51 1.5 1.5 0 0 0-1.5 1.5 1.51 1.51 0 0 0 1.5 1.52 1.5 1.5 0 0 0 1.5-1.51ZM10.86 30.03c.07 1.34.94 2.6 2.22 2.99 1.76.54 3.42-.54 3.84-2.3.06-.25.08-.62.08-1.1A3566.17 3566.17 0 0 1 17 19h3.95l.03.01v11.2A7 7 0 0 1 13.6 37a7.1 7.1 0 0 1-6.58-7h3.8l.02.02.02.02ZM40 28a9.1 9.1 0 0 1-8.03 8.92c-.43.05-1.15.08-2.18.08a1718.99 1718.99 0 0 0-6.79-.02A26694.48 26694.48 0 0 1 23.02 19h6.77c1.03 0 1.76.03 2.18.08A9.1 9.1 0 0 1 40 28Zm-13-5v10h3.65c2.84 0 5.39-2.1 5.39-5s-2.55-5-5.39-5H27s-.01 0 0 0ZM45.97 24h-3.94a.03.03 0 0 0-.03.03v12.94c0 .02.01.03.03.03h3.94c.02 0 .03-.01.03-.03V24.03a.03.03 0 0 0-.03-.03Z" fill="#D4231F"/></svg>